<?xml version="1.0" encoding="UTF-8"?>
<svg xmlns="http://www.w3.org/2000/svg" version="1.1" viewBox="-1 -1 2 2">
<path d="M-0.934172,0.303531 -0.57735,0.794654 M0.0,-0.607062 0.0,-0.982247 M-0.57735,-0.187593 -0.934172,-0.303531 M0.934172,0.303531 0.934172,-0.303531 M-0.356822,0.491123 -0.57735,0.794654 M0.57735,-0.187593 0.934172,-0.303531 M-0.934172,-0.303531 -0.934172,0.303531 M0.356822,0.491123 0.57735,0.794654 M0.0,-0.607062 -0.57735,-0.187593 M0.0,-0.982247 -0.57735,-0.794654 M-0.57735,0.794654 -0.0,0.982247 M0.356822,0.491123 0.57735,-0.187593 M0.57735,0.794654 0.934172,0.303531 M0.57735,0.794654 -0.0,0.982247 M0.934172,-0.303531 0.57735,-0.794654 M-0.57735,-0.794654 -0.934172,-0.303531 M-0.57735,-0.187593 -0.356822,0.491123 M0.356822,0.491123 -0.356822,0.491123 M0.57735,-0.187593 0.0,-0.607062 M0.57735,-0.794654 0.0,-0.982247 " stroke="#000" stroke-linecap="round" stroke-width=".02"/>
</svg>
