<?xml version="1.0" encoding="UTF-8"?>
<svg xmlns="http://www.w3.org/2000/svg" version="1.1" viewBox="-1 -1 2 2">
<path d="M-0.429835,0.873172 0.186672,0.895585 M0.03738,-0.165492 -0.142342,-0.433443 M-0.430782,-0.795866 -0.768526,-0.427551 M0.473452,0.606956 0.186672,0.895585 M0.791628,0.325272 0.744847,0.549567 M-0.430782,-0.795866 -0.744847,-0.549567 M-0.45136,0.537129 -0.717077,0.392805 M-0.403825,0.118903 -0.451873,-0.366521 M-0.451873,-0.366521 -0.142342,-0.433443 M-0.403825,0.118903 -0.753931,0.067722 M-0.403825,0.118903 -0.717077,0.392805 M0.03738,-0.165492 0.213467,0.118556 M0.473452,0.606956 0.512355,0.098749 M0.48874,-0.702621 0.744244,-0.513081 M-0.430782,-0.795866 -0.451873,-0.366521 M0.988682,-0.00618 0.791311,-0.233214 M0.473452,0.606956 0.48957,0.759515 M0.988682,-0.00618 0.791628,0.325272 M-0.988682,0.00618 -0.71745,-0.263948 M0.48874,-0.702621 0.185697,-0.823816 M0.472867,-0.424566 0.791311,-0.233214 M0.791311,-0.233214 0.761407,0.069337 M-0.988682,0.00618 -0.768526,-0.427551 M0.472867,-0.424566 0.022785,-0.660766 M0.988682,-0.00618 0.761407,0.069337 M-0.403825,0.118903 -0.45136,0.537129 M-0.768526,-0.427551 -0.71745,-0.263948 M0.472867,-0.424566 0.761407,0.069337 M0.022785,-0.660766 0.185697,-0.823816 M0.512355,0.098749 0.213467,0.118556 M0.512355,0.098749 0.761407,0.069337 M-0.403825,0.118903 -0.141739,0.629206 M0.473452,0.606956 0.037697,0.392994 M0.023615,0.80137 -0.141739,0.629206 M-0.430782,-0.795866 0.022785,-0.660766 M0.429835,-0.873172 0.48874,-0.702621 M-0.429835,0.873172 -0.768013,0.476098 M0.473452,0.606956 0.213467,0.118556 M-0.753931,0.067722 -0.717077,0.392805 M-0.429835,0.873172 0.023615,0.80137 M0.472867,-0.424566 0.48874,-0.702621 M0.472867,-0.424566 0.512355,0.098749 M0.022785,-0.660766 -0.142342,-0.433443 M-0.403825,0.118903 0.03738,-0.165492 M0.472867,-0.424566 0.03738,-0.165492 M-0.403825,0.118903 -0.142342,-0.433443 M-0.430782,-0.795866 -0.000513,-0.90365 M0.472867,-0.424566 -0.142342,-0.433443 M0.473452,0.606956 0.023615,0.80137 M-0.988682,0.00618 -0.753931,0.067722 M0.472867,-0.424566 0.744244,-0.513081 M-0.988682,0.00618 -0.717077,0.392805 M0.988682,-0.00618 0.744244,-0.513081 M-0.768013,0.476098 -0.717077,0.392805 M0.791311,-0.233214 0.744244,-0.513081 M-0.429835,0.873172 -0.717077,0.392805 M0.023615,0.80137 0.186672,0.895585 M0.473452,0.606956 -0.141739,0.629206 M0.473452,0.606956 0.744847,0.549567 M-0.430782,-0.795866 -0.71745,-0.263948 M0.48957,0.759515 0.186672,0.895585 M-0.430782,-0.795866 -0.142342,-0.433443 M-0.768526,-0.427551 -0.744847,-0.549567 M0.473452,0.606956 0.761407,0.069337 M-0.430782,-0.795866 0.185697,-0.823816 M0.037697,0.392994 0.213467,0.118556 M-0.429835,0.873172 -0.141739,0.629206 M-0.451873,-0.366521 -0.71745,-0.263948 M0.429835,-0.873172 0.185697,-0.823816 M-0.403825,0.118903 0.037697,0.392994 M0.472867,-0.424566 0.185697,-0.823816 M-0.753931,0.067722 -0.71745,-0.263948 M-0.403825,0.118903 0.213467,0.118556 M-0.403825,0.118903 -0.71745,-0.263948 M0.791628,0.325272 0.761407,0.069337 M-0.000513,-0.90365 0.185697,-0.823816 M0.472867,-0.424566 0.213467,0.118556 M-0.45136,0.537129 -0.141739,0.629206 M0.037697,0.392994 -0.141739,0.629206 M0.473452,0.606956 0.791628,0.325272 M-0.429835,0.873172 -0.45136,0.537129 M0.429835,-0.873172 -0.000513,-0.90365 M0.744244,-0.513081 0.429835,-0.873172 M-0.744847,-0.549567 -0.988682,0.00618 M-0.988682,0.00618 -0.768013,0.476098 M0.744847,0.549567 0.988682,-0.00618 M0.988682,-0.00618 0.768013,-0.476098 M0.768013,-0.476098 0.744244,-0.513081 M-0.768013,0.476098 -0.744244,0.513081 M-0.744244,0.513081 -0.429835,0.873172 M-0.429835,0.873172 0.000513,0.90365 M0.000513,0.90365 0.186672,0.895585 M-0.000513,-0.90365 -0.186672,-0.895585 M-0.186672,-0.895585 -0.430782,-0.795866 M-0.430782,-0.795866 -0.48957,-0.759515 M-0.48957,-0.759515 -0.744847,-0.549567 M0.48957,0.759515 0.744847,0.549567 M0.430782,0.795866 0.48957,0.759515 M0.186672,0.895585 0.430782,0.795866 " stroke="#000" stroke-linecap="round" stroke-width=".02"/>
</svg>
