<?xml version="1.0" encoding="UTF-8"?>
<svg xmlns="http://www.w3.org/2000/svg" version="1.1" viewBox="-1 -1 2 2">
<path d="M0.850651,-0.491123 -0.0,-0.982247 M0.0,0.982247 0.850651,0.491123 M-0.0,-0.607062 -0.0,-0.982247 M-0.0,-0.607062 -0.850651,-0.491123 M0.850651,0.491123 0.850651,-0.491123 M0.0,0.982247 -0.850651,0.491123 M-0.0,-0.607062 0.850651,-0.491123 M-0.525731,0.303531 0.0,0.982247 M0.525731,0.303531 -0.0,-0.607062 M-0.525731,0.303531 -0.850651,0.491123 M0.525731,0.303531 0.850651,0.491123 M-0.0,-0.982247 -0.850651,-0.491123 M0.525731,0.303531 0.0,0.982247 M-0.525731,0.303531 -0.0,-0.607062 M-0.850651,-0.491123 -0.850651,0.491123 M-0.525731,0.303531 -0.850651,-0.491123 M0.525731,0.303531 0.850651,-0.491123 M-0.525731,0.303531 0.525731,0.303531 " stroke="#000" stroke-linecap="round" stroke-width=".02"/>
</svg>
