<?xml version="1.0" encoding="UTF-8"?>
<svg xmlns="http://www.w3.org/2000/svg" version="1.1" viewBox="-1 -1 2 2">
<path d="M0.491998,0.073728 0.761939,-0.270767 M-0.001689,0.849475 -0.001747,0.929236 M-0.69739,0.599364 -0.492549,0.071864 M-0.984547,-0.001864 -0.761058,-0.273651 M0.984547,0.001864 0.761939,-0.270767 M0.695001,0.602001 -0.001689,0.849475 M0.000805,-0.497732 0.491998,0.073728 M0.491998,0.073728 -0.000866,0.384817 M-0.49086,-0.777611 -0.761058,-0.273651 M0.493688,-0.775747 0.761939,-0.270767 M0.000805,-0.497732 -0.492549,0.071864 M0.695001,0.602001 0.491998,0.073728 M-0.492549,0.071864 -0.000866,0.384817 M0.000805,-0.497732 0.493688,-0.775747 M-0.001689,0.849475 -0.000866,0.384817 M-0.69739,0.599364 -0.001689,0.849475 M-0.492549,0.071864 -0.761058,-0.273651 M0.000805,-0.497732 -0.49086,-0.777611 M0.69739,-0.599364 0.493688,-0.775747 M0.984547,0.001864 0.69739,-0.599364 M-0.984547,-0.001864 -0.69739,0.599364 M-0.69739,0.599364 -0.493688,0.775747 M-0.493688,0.775747 -0.001747,0.929236 M-0.695001,-0.602001 -0.984547,-0.001864 M-0.49086,-0.777611 -0.695001,-0.602001 M-0.001747,0.929236 0.49086,0.777611 M0.49086,0.777611 0.695001,0.602001 M0.695001,0.602001 0.984547,0.001864 M0.493688,-0.775747 0.001747,-0.929236 M0.001747,-0.929236 -0.49086,-0.777611 " stroke="#000" stroke-linecap="round" stroke-width=".02"/>
</svg>
