<?xml version="1.0" encoding="UTF-8"?>
<svg xmlns="http://www.w3.org/2000/svg" version="1.1" viewBox="-1 -1 2 2">
<path d="M-0.375907,-0.984138 -0.0,-0.984138 M-0.0,-0.375907 -0.608231,0.0 M0.984138,0.0 0.984138,0.608231 M-0.608231,0.608231 -0.0,0.984138 M0.608231,0.608231 -0.0,0.984138 M-0.984138,0.0 -0.984138,0.608231 M-0.0,0.375907 0.608231,0.0 M-0.608231,0.608231 -0.608231,0.0 M0.984138,0.0 0.608231,0.0 M0.608231,-0.608231 0.608231,0.0 M0.375907,0.984138 -0.0,0.984138 M-0.984138,0.0 -0.984138,-0.608231 M0.375907,-0.984138 0.984138,-0.608231 M-0.0,-0.375907 0.608231,0.0 M-0.608231,-0.608231 -0.0,-0.984138 M0.984138,0.0 0.984138,-0.608231 M0.608231,-0.608231 0.984138,-0.608231 M0.375907,0.984138 0.984138,0.608231 M-0.984138,0.0 -0.608231,0.0 M0.608231,0.608231 0.984138,0.608231 M0.375907,-0.984138 -0.0,-0.984138 M-0.0,0.375907 -0.608231,0.0 M-0.375907,0.984138 -0.0,0.984138 M-0.375907,0.984138 -0.984138,0.608231 M-0.608231,-0.608231 -0.984138,-0.608231 M0.608231,-0.608231 -0.0,-0.984138 M-0.608231,0.608231 -0.984138,0.608231 M-0.0,-0.375907 -0.0,-0.984138 M-0.608231,-0.608231 -0.608231,0.0 M-0.375907,-0.984138 -0.984138,-0.608231 M0.608231,0.608231 0.608231,0.0 M-0.0,0.375907 -0.0,0.984138 " stroke="#000" stroke-linecap="round" stroke-width=".02"/>
</svg>
