<?xml version="1.0" encoding="UTF-8"?>
<svg xmlns="http://www.w3.org/2000/svg" version="1.1" viewBox="-1 -1 2 2">
<path d="M0.641121,-0.650648 0.979202,-0.010332 M0.639745,0.827666 0.785523,0.108561 M-0.571578,0.196564 0.042649,-0.278478 M0.639745,0.827666 0.37493,0.197476 M0.785523,0.108561 0.979202,-0.010332 M-0.571578,0.196564 -0.742874,-0.387039 M0.639745,0.827666 -0.302863,0.88534 M-0.571578,0.196564 0.041805,0.628134 M0.000844,-0.906613 -0.301409,-0.677533 M-0.742874,-0.387039 -0.301409,-0.677533 M-0.571578,0.196564 -0.743717,0.519573 M-0.743717,0.519573 -0.302863,0.88534 M0.639745,0.827666 0.041805,0.628134 M0.042649,-0.278478 0.37493,0.197476 M0.041805,0.628134 0.37493,0.197476 M-0.571578,0.196564 0.37493,0.197476 M0.042649,-0.278478 -0.301409,-0.677533 M0.641121,-0.650648 0.37493,0.197476 M0.641121,-0.650648 0.785523,0.108561 M-0.639745,-0.827666 -0.301409,-0.677533 M-0.742874,-0.387039 -0.979202,0.010332 M-0.571578,0.196564 -0.301409,-0.677533 M0.041805,0.628134 -0.302863,0.88534 M0.641121,-0.650648 0.000844,-0.906613 M0.785523,0.108561 0.37493,0.197476 M-0.571578,0.196564 -0.302863,0.88534 M0.641121,-0.650648 -0.301409,-0.677533 M0.641121,-0.650648 0.042649,-0.278478 M-0.571578,0.196564 -0.979202,0.010332 M-0.639745,-0.827666 -0.742874,-0.387039 M-0.639745,-0.827666 -0.979202,0.010332 M0.000844,-0.906613 -0.639745,-0.827666 M-0.302863,0.88534 -0.000844,0.906613 M-0.000844,0.906613 0.639745,0.827666 M0.639745,0.827666 0.979202,-0.010332 M-0.641121,0.650648 -0.302863,0.88534 M-0.743717,0.519573 -0.641121,0.650648 M0.979202,-0.010332 0.743717,-0.519573 M0.743717,-0.519573 0.641121,-0.650648 M0.641121,-0.650648 0.302863,-0.88534 M0.302863,-0.88534 0.000844,-0.906613 M-0.979202,0.010332 -0.743717,0.519573 " stroke="#000" stroke-linecap="round" stroke-width=".02"/>
</svg>
