<?xml version="1.0" encoding="UTF-8"?>
<svg xmlns="http://www.w3.org/2000/svg" version="1.1" viewBox="-1 -1 2 2">
<path d="M-0.837385,-0.42381 -0.479775,-0.807208 M-0.517533,0.486105 -0.0,0.557653 M0.837386,-0.42381 0.959551,-0.004321 M-0.479775,-0.459889 -0.336199,-0.717757 M0.517533,0.486105 0.296518,0.839209 M-0.0,0.977525 0.479775,0.798566 M0.776293,0.036322 0.880182,0.192578 M0.0,-0.379968 0.0,-0.782089 M-0.517533,0.486105 -0.296518,0.061441 M0.959551,-0.004321 0.880182,0.192578 M0.837386,-0.42381 0.479775,-0.807208 M-0.959551,-0.004321 -0.880182,0.192578 M-0.296518,0.839209 -0.0,0.783677 M0.0,-0.986168 0.0,-0.782089 M-0.776293,0.517009 -0.880182,0.192578 M0.296518,0.839209 -0.0,0.783677 M-0.776293,0.036322 -0.880182,0.192578 M-0.776293,0.517009 -0.543982,0.755197 M-0.517533,0.486105 -0.776293,0.517009 M-0.479775,-0.807208 -0.543982,-0.763839 M-0.776293,0.036322 -0.543982,-0.126658 M0.837386,-0.42381 0.776293,-0.525652 M0.837385,0.415167 0.776293,0.517009 M0.0,-0.379968 0.479775,-0.459889 M-0.776293,-0.525652 -0.543982,-0.763839 M-0.0,0.977525 -0.479776,0.798566 M0.0,-0.782089 0.3362,-0.717757 M-0.0,0.557653 -0.0,0.238661 M0.479775,-0.807208 0.3362,-0.717757 M-0.837385,-0.42381 -0.479775,-0.459889 M0.479775,-0.459889 0.3362,-0.717757 M0.0,-0.379968 -0.296518,0.061441 M0.517533,0.486105 0.776293,0.036322 M-0.837385,-0.42381 -0.959551,-0.004321 M0.479775,0.798566 0.543982,0.755197 M-0.0,0.977525 0.296518,0.839209 M-0.296518,0.839209 -0.543982,0.755197 M-0.837385,-0.42381 -0.776293,0.036322 M0.0,-0.986168 -0.479775,-0.807208 M-0.837386,0.415167 -0.959551,-0.004321 M0.296518,0.839209 0.543982,0.755197 M-0.517533,0.486105 -0.296518,0.839209 M0.0,-0.986168 0.479775,-0.807208 M-0.479776,0.798566 -0.543982,0.755197 M0.517533,0.486105 0.296518,0.061441 M-0.296518,0.061441 -0.543982,-0.126658 M-0.517533,0.486105 -0.776293,0.036322 M-0.479775,-0.459889 -0.543982,-0.126658 M0.296518,0.061441 0.543982,-0.126658 M-0.837385,-0.42381 -0.776293,-0.525652 M0.837386,-0.42381 0.776293,0.036322 M0.296518,0.061441 -0.0,0.238661 M0.0,-0.782089 -0.336199,-0.717757 M0.776293,-0.525652 0.543982,-0.763839 M0.479775,-0.459889 0.543982,-0.126658 M0.776293,0.517009 0.543982,0.755197 M0.0,-0.379968 0.296518,0.061441 M0.0,-0.379968 -0.479775,-0.459889 M-0.296518,0.061441 -0.0,0.238661 M0.776293,0.036322 0.543982,-0.126658 M-0.0,0.557653 -0.0,0.783677 M0.837386,-0.42381 0.479775,-0.459889 M-0.479775,-0.807208 -0.336199,-0.717757 M-0.837386,0.415167 -0.776293,0.517009 M0.517533,0.486105 -0.0,0.557653 M0.837385,0.415167 0.959551,-0.004321 M-0.0,0.977525 -0.296518,0.839209 M0.517533,0.486105 0.776293,0.517009 M0.479775,-0.807208 0.543982,-0.763839 M0.776293,0.517009 0.880182,0.192578 " stroke="#000" stroke-linecap="round" stroke-width=".02"/>
</svg>
